<?xml version="1.0" encoding="UTF-8"?>
<svg id="uuid-cc4a4fb5-bff1-4372-a0ac-b13772fc1283" data-name="1" xmlns="http://www.w3.org/2000/svg" viewBox="0 0 1023 306.18">
  <g>
    <g>
      <path d="M1023,94.31v88c-64.89-34.49-98.87-93.99-181.04-49.78-9.62,5.3-16.44,10.88-22.96,16.28-28.16,2.36-59.79-28.68-82-51.5,81.99-39.3,207.44-58.25,286-3Z" style="fill: #d1efe3;"/>
      <path d="M104,100.18c-35.06,12.41-69.16,27.97-104,41V56.18c22.77,7.19,45.03,16.17,66.99,25.51,9.64,4.1,26.53,10.24,34.79,15.26,1.94,1.18,1.44,1.56,2.22,3.22Z" style="fill: #d1efe3;"/>
      <path d="M212,76.18c38.84-18.82,81.23-36.91,124.62-41.88,63.54-7.27,124.78,9.87,180.4,39.35,9.1,4.83,19.08,10.12,26.98,16.52-59.53,27.31-96.99,57.57-166.52,33.02-61.63-21.76-94.06-49.19-165.48-47.02Z" style="fill: #d1efe3;"/>
    </g>
    <path d="M831.69,135.37c37.12-23.34,76.35-29.36,115.98-7.36,26.69,14.82,46.29,40.3,75.33,51.17v127H0v-94c69.82,22.39,142.24,26.87,214.19,11.69,81.83-17.26,170.14-69.52,252.35-64.73,76.09,4.43,138.26,71.61,217.95,63.03,55.6-5.99,94.82-40.85,134.5-76.5" style="fill: #23b283;"/>
    <path d="M819,145.68c-39.68,35.65-78.9,70.51-134.5,76.5-79.69,8.58-141.86-58.6-217.95-63.03-82.21-4.79-170.53,47.47-252.35,64.73-71.95,15.18-144.36,10.7-214.19-11.69v-71c34.84-13.03,68.94-28.59,104-41,34.75-12.3,70.81-22.87,108-24,71.42-2.17,103.86,25.26,165.48,47.02,69.53,24.55,106.99-5.71,166.52-33.02,66.7-30.6,131.94-50.78,193,4,21.86,19.61,38.55,44.73,70,49" style="fill: #3ec394;"/>
  </g>
  <circle cx="138.82" cy="44.39" r="12.01" style="fill: #b6e8d2;"/>
  <circle cx="242.6" cy="45.63" r="10.54" style="fill: #3cc393;"/>
  <circle cx="751.5" cy="57.54" r="6.71" style="fill: #34bf8e;"/>
  <circle cx="641.33" cy="29.12" r="4.94" style="fill: #30be8c;"/>
  <circle cx="786.5" cy="4.68" r="4.68" style="fill: #2bbc89;"/>
  <circle cx="844.5" cy="36.68" r="4.68" style="fill: #2bbc89;"/>
</svg>