<svg t="1751532305699" class="icon" viewBox="0 0 1024 1024" version="1.1" xmlns="http://www.w3.org/2000/svg" p-id="17993" width="256" height="256"><path d="M204.8 51.2v921.6H102.4a51.2 51.2 0 0 1-51.2-51.2V102.4a51.2 51.2 0 0 1 51.2-51.2h102.4z m716.8 0a51.2 51.2 0 0 1 51.2 51.2v819.2a51.2 51.2 0 0 1-51.2 51.2H307.2V51.2h614.4zM640 512c-100.608 0-179.2 82.9184-179.2 153.6s145.3568 76.8 179.2 76.8 179.2-6.1184 179.2-76.8-78.592-153.6-179.2-153.6z m0-256a102.4 102.4 0 1 0 0 204.8 102.4 102.4 0 0 0 0-204.8z" fill="#59ADF8" p-id="17994"></path></svg>