<?xml version="1.0" standalone="no"?><!DOCTYPE svg PUBLIC "-//W3C//DTD SVG 1.1//EN" "http://www.w3.org/Graphics/SVG/1.1/DTD/svg11.dtd"><svg t="1776181618106" class="icon" viewBox="0 0 1024 1024" version="1.1" xmlns="http://www.w3.org/2000/svg" p-id="6666" xmlns:xlink="http://www.w3.org/1999/xlink" width="200" height="200"><path d="M1019.84768 880.981333a116.622222 116.622222 0 0 1-100.295111 85.219556v0.682667l-12.572445 0.170666H116.622791a116.508444 116.508444 0 0 1-82.432-33.848889 114.346667 114.346667 0 0 1-34.247111-81.806222 114.119111 114.119111 0 0 1 15.701333-58.026667L410.738347 114.688a115.655111 115.655111 0 0 1 70.826666-53.930667 117.020444 117.020444 0 0 1 131.413334 53.930667l395.093333 678.456889c15.644444 26.737778 19.797333 57.912889 11.776 87.779555z m-92.16-41.472L532.42368 161.052444a23.779556 23.779556 0 0 0-41.073778-0.056888l-23.495111 40.846222v-0.682667L96.142791 839.509333a23.153778 23.153778 0 0 0 8.590222 32.028445 23.324444 23.324444 0 0 0 11.832889 3.185778H907.264569a23.608889 23.608889 0 0 0 23.665778-23.324445 23.210667 23.210667 0 0 0-3.242667-11.889778z m-448.227556-30.492444v-203.093333H428.373902v-175.786667h167.025778l-60.700444 143.246222h60.700444l-115.939556 235.633778z" fill="#59ADF8" p-id="6667"></path></svg>