<svg t="1751532053347" class="icon" viewBox="0 0 1024 1024" version="1.1" xmlns="http://www.w3.org/2000/svg" p-id="12127" width="256" height="256"><path d="M870.368415 0a153.568415 153.568415 0 0 0-153.568415 153.568415c0 133.606416 153.568415 307.2 153.568415 307.2s153.631585-173.530413 153.631585-307.2A153.568415 153.568415 0 0 0 870.368415 0z m0 230.384207a76.815793 76.815793 0 1 1 76.815792-76.815792 76.815793 76.815793 0 0 1-76.815792 76.815792z m-614.4 25.584208A255.968415 255.968415 0 0 0 0 511.684146c0 222.740531 256.031585 511.684146 256.031585 511.684145S511.684146 734.740531 511.684146 511.684146a255.968415 255.968415 0 0 0-255.715731-255.715731z m0 384.015792A127.984207 127.984207 0 1 1 384.015793 511.684146a127.984207 127.984207 0 0 1-128.047378 128.300061z m413.20074-101.073411a204.8 204.8 0 0 0-13.329056 81.427267v14.845157h51.231585v-13.64491a159.253794 159.253794 0 0 1 9.222949-61.465269 128.994941 128.994941 0 0 1 5.622208-11.749784l-45.040839-24.573473a120.403701 120.403701 0 0 0-7.706847 14.845157z m44.535472-63.170882l34.301789 37.902529a174.098951 174.098951 0 0 1 79.53214-39.039605l-11.433929-51.357927a224.761999 224.761999 0 0 0-102.273658 52.431832zM319.455151 972.831585l4.611475 51.168415a1375.293276 1375.293276 0 0 0 102.4-12.634176l-8.654411-51.168415a981.928192 981.928192 0 0 1-98.293893 12.634176zM606.440469 892.920419l-6.632943 5.116842 30.701049 40.934732 9.222949-7.13831a194.566317 194.566317 0 0 0 59.885996-86.038742l-48.641579-16.866625a141.81863 141.81863 0 0 1-44.535472 63.992103z m-138.975941 57.864529l11.244417 51.231585a530.63541 530.63541 0 0 0 102.4-33.291055l-20.972733-47.125478a487.426527 487.426527 0 0 1-92.671684 29.184948z m190.965577-263.675263c0 20.467366 3.095373 41.50327 3.095373 62.476003v35.312523l51.231586 5.116841a403.472424 403.472424 0 0 0 0-40.429364 471.823319 471.823319 0 0 0-3.095374-66.076743z" fill="#59ADF8" p-id="12128"></path></svg>