<svg t="1751531791848" class="icon" viewBox="0 0 1024 1024" version="1.1" xmlns="http://www.w3.org/2000/svg" p-id="4853" width="256" height="256"><path d="M929.1264 879.2576h-11.8272c0-3.84-0.4096-6.1952-0.512-10.24-2.2528-73.4208-1.9456-146.8928-2.6112-220.16a14.7968 14.7968 0 0 1 5.4272-9.1136c54.4256-47.0016 53.8112-145.5104-10.9568-199.2704-41.472-34.4576-82.5344-69.376-123.904-103.936-16.5888-13.8752-32.1024-13.6704-48.384 0.6144-18.432 16.1792-36.5568 32.6656-54.9376 48.896a131.7888 131.7888 0 0 1-11.264 7.8848c-5.12-16.4864-2.048-28.0064 10.24-37.9904a70.7072 70.7072 0 0 0 14.2336-19.7632c31.5392-55.3472 15.36-126.4128-39.5264-172.5952q-59.5456-50.432-119.1424-100.096c-16.896-14.1824-31.1808-14.2336-48.2304 0.3072-12.032 10.24-23.3472 21.3504-35.3792 31.5392-32.4608 27.392-66.8672 52.736-97.28 81.92-52.1216 50.3296-54.4768 134.0416-6.4512 182.528 11.008 11.1104 9.5232 20.48 5.12 34.6112L292.4544 340.224c-21.6064-19.2-35.2768-18.7904-56.8832 0-33.3824 28.8256-67.6352 56.6784-101.0176 85.504a294.144 294.144 0 0 0-40.96 39.7312c-36.608 46.848-36.6592 117.1968 0.6144 160.512a57.0368 57.0368 0 0 1 15.36 43.6736c-1.792 63.6928-0.7168 127.488-0.7168 191.2832v18.0224h-10.24c-21.5552 0-32.9728 17.7152-32 35.2256s15.36 30.3616 35.4816 31.1296H929.6384c17.5616 0 29.2352-16.8448 29.1328-32.7168s-8.4992-33.3312-29.6448-33.3312z m-350.6176 4.0448H446.72v-134.7072a65.8944 65.8944 0 1 1 131.7888 0z" fill="#59ADF8" p-id="4854"></path></svg>