<svg t="1751532375104" class="icon" viewBox="0 0 1024 1024" version="1.1" xmlns="http://www.w3.org/2000/svg" p-id="22170" width="256" height="256"><path d="M805.5808 169.4208h-98.56V153.6a37.4272 37.4272 0 0 0-74.8032 0v15.9744H384.3072V153.6a37.4272 37.4272 0 0 0-74.8032 0v15.9744H207.7696c-55.9616 0-101.3248 43.8272-101.3248 97.8944v540.0576c0 54.0672 45.3632 97.8944 101.3248 97.8944h597.8112c55.9616 0 101.3248-43.8272 101.3248-97.8944V267.3152c0-54.0672-45.3632-97.8944-101.3248-97.8944z m-89.2928 384.6144l-238.0288 227.7376a42.9568 42.9568 0 0 1-60.2112-0.768l-129.6896-130.4576a42.9568 42.9568 0 0 1 60.9792-60.5696l99.9424 100.5568 207.5648-198.6048a43.008 43.008 0 1 1 59.4432 62.1056z m109.568-214.4768a24.9856 24.9856 0 0 1-25.6 24.5248H212.8896a24.9856 24.9856 0 0 1-25.344-24.5248V271.36a24.9344 24.9344 0 0 1 25.344-24.5248h96.6144v21.248a37.4272 37.4272 0 0 0 74.8032 0v-21.0944h247.9104v21.248a37.4272 37.4272 0 0 0 74.8032 0v-21.248h93.44a24.9344 24.9344 0 0 1 25.6 24.5248z" fill="#59ADF8" p-id="22171"></path></svg>