<svg t="1752317330799" class="icon" viewBox="0 0 1024 1024" version="1.1" xmlns="http://www.w3.org/2000/svg" p-id="10174" width="256" height="256"><path d="M766.8 76C835.394 76 891 131.606 891 200.2v632.6c0 68.594-55.606 124.2-124.2 124.2H196.2C127.606 957 72 901.394 72 832.8V200.2C72 131.606 127.606 76 196.2 76h570.6z m26.273 367.83c-13.728-9.183-32.302-5.5-41.487 8.228l-237.9 355.56-0.428 0.657c-8.637 13.657-4.856 31.788 8.655 40.825 13.728 9.183 32.302 5.499 41.487-8.228l237.9-355.56 0.428-0.658c8.637-13.657 4.856-31.788-8.655-40.825z m-282.865 41.616H233.039l-0.706 0.009c-16.19 0.375-29.201 13.616-29.201 29.895 0 16.35 13.124 29.635 29.413 29.9l0.494 0.003h277.169l0.705-0.008c16.192-0.375 29.202-13.616 29.202-29.895 0-16.515-13.39-29.904-29.907-29.904z m153.816-186.26H233.039l-0.706 0.009c-16.19 0.375-29.201 13.616-29.201 29.895 0 16.35 13.124 29.635 29.413 29.9l0.494 0.003h430.985l0.706-0.008c16.191-0.375 29.201-13.616 29.201-29.895 0-16.515-13.39-29.904-29.907-29.904z" fill="#59ADF8" p-id="10175"></path></svg>