<svg t="1752316883917" class="icon" viewBox="0 0 1024 1024" version="1.1" xmlns="http://www.w3.org/2000/svg" p-id="4948" width="256" height="256"><path d="M407.1424 106.9056A100.5568 100.5568 0 1 0 507.4944 0a103.7312 103.7312 0 0 0-100.352 106.9056z m167.5264 154.4192H444.0064a160.3584 160.3584 0 0 0-111.8208 44.6464v276.0704h98.304l20.8896 324.4032h120.0128l20.48-324.4032h99.9424V311.296a161.1264 161.1264 0 0 0-117.1456-49.9712z m89.7024 448.9216v56.1152c111.0016 17.6128 187.5968 54.0672 187.5968 96.256 0 59.392-152.3712 107.3152-339.968 107.3152-187.5968 0-339.968-47.9232-339.968-107.3152 0-42.1888 76.5952-78.6432 188.8256-96.256v-56.5248C174.8992 731.5456 40.96 791.3472 40.96 862.6176 40.96 951.5008 251.904 1024 512 1024c260.096 0 471.04-72.4992 471.04-161.3824 0-70.8608-133.5296-130.6624-318.6688-152.3712z" p-id="4949" fill="#59ADF8"></path></svg>