<?xml version="1.0" standalone="no"?><!DOCTYPE svg PUBLIC "-//W3C//DTD SVG 1.1//EN" "http://www.w3.org/Graphics/SVG/1.1/DTD/svg11.dtd"><svg t="1758455520461" class="icon" viewBox="0 0 1024 1024" version="1.1" xmlns="http://www.w3.org/2000/svg" p-id="12025" xmlns:xlink="http://www.w3.org/1999/xlink" width="256" height="256"><path d="M873.043528 298.665173a127.99936 127.99936 0 0 1 129.279354 127.99936c0.39822 5.68886 0.39822 11.377721 0 17.066582l-62.719687 469.330986a127.99936 127.99936 0 0 1-127.99936 110.932779H192.940262a127.99936 127.99936 0 0 1-127.99936-110.932779L2.221216 443.731115a127.99936 127.99936 0 0 1 24.746542-95.99952 125.439373 125.439373 0 0 1 85.332907-49.066422 109.226121 109.226121 0 0 1 16.639917 0h119.466069a282.878586 282.878586 0 0 1-3.413316-42.666453 255.99872 255.99872 0 0 1 511.99744 0 282.878586 282.878586 0 0 1-3.413316 42.666453h119.466069zM500.992055 85.332907a170.665813 170.665813 0 0 0-170.665813 170.665813 158.292542 158.292542 0 0 0 5.546639 42.666453h330.238348c3.783092-13.909264 5.660416-28.273636 5.546639-42.666453a170.665813 170.665813 0 0 0-170.665813-170.665813zM270.166543 537.170647a63.99968 63.99968 0 1 0 127.99936 0 63.99968 63.99968 0 0 0-127.99936 0z m355.411556 0a63.99968 63.99968 0 1 0 127.99936 0 63.99968 63.99968 0 0 0-127.99936 0z" fill="#59ADF8" p-id="12026"></path></svg>