<?xml version="1.0" standalone="no"?><!DOCTYPE svg PUBLIC "-//W3C//DTD SVG 1.1//EN" "http://www.w3.org/Graphics/SVG/1.1/DTD/svg11.dtd"><svg t="1758455452054" class="icon" viewBox="0 0 1024 1024" version="1.1" xmlns="http://www.w3.org/2000/svg" p-id="5542" xmlns:xlink="http://www.w3.org/1999/xlink" width="256" height="256"><path d="M937.6 384l-67.2-70.4c-6.4-6.4-12.8-9.6-22.4-9.6-6.4 0-16 3.2-22.4 9.6-12.8 12.8-32 22.4-51.2 22.4-19.2 0-38.4-9.6-51.2-22.4-12.8-12.8-22.4-32-22.4-54.4 0-19.2 9.6-38.4 22.4-51.2 12.8-12.8 12.8-32 0-44.8l-67.2-70.4c-32-32-86.4-32-118.4 0l-448 432c-16 16-25.6 35.2-25.6 57.6s9.6 44.8 22.4 60.8l67.2 70.4c6.4 6.4 12.8 9.6 22.4 9.6 9.6 0 16-3.2 22.4-9.6 12.8-12.8 32-22.4 54.4-22.4 19.2 0 38.4 9.6 51.2 22.4 12.8 12.8 22.4 32 22.4 54.4 0 19.2-9.6 38.4-22.4 51.2-12.8 12.8-12.8 32 0 44.8l67.2 70.4c16 16 38.4 25.6 60.8 25.6s41.6-6.4 57.6-22.4l444.8-435.2c16-16 25.6-35.2 25.6-57.6 0-25.6-6.4-44.8-22.4-60.8z m-579.2 201.6c-9.6 0-16-3.2-22.4-9.6-12.8-12.8-12.8-32 0-44.8L512 352c12.8-12.8 32-12.8 44.8 0 12.8 12.8 12.8 32 0 44.8L380.8 576c-6.4 6.4-16 9.6-22.4 9.6z m294.4-92.8L476.8 672c-6.4 6.4-16 9.6-22.4 9.6s-16-3.2-22.4-9.6c-12.8-12.8-12.8-32 0-44.8L608 448c12.8-12.8 32-12.8 44.8 0 12.8 12.8 12.8 32 0 44.8z" fill="#59ADF8" p-id="5543"></path></svg>