<svg t="1752317297574" class="icon" viewBox="0 0 1097 1024" version="1.1" xmlns="http://www.w3.org/2000/svg" p-id="8223" width="256" height="256"><path d="M841.142857 768a128 128 0 0 1-256 0v-512a256 256 0 0 0-512 0v384h128V256a128 128 0 0 1 256 0v512a256 256 0 0 0 512 0V384H841.142857v384z" fill="#59ADF8" p-id="8224"></path><path d="M128 859.428571m-128 0a128 128 0 1 0 256 0 128 128 0 1 0-256 0Z" fill="#59ADF8" p-id="8225"></path><path d="M932.571429 128m-128 0a128 128 0 1 0 256 0 128 128 0 1 0-256 0Z" fill="#59ADF8" p-id="8226"></path></svg>