<?xml version="1.0" encoding="UTF-8"?>
<svg id="uuid-33caf007-87b9-41c0-9987-849f9115cc62" data-name="图层 1" xmlns="http://www.w3.org/2000/svg" viewBox="0 0 1000 1000">
  <rect width="1000" height="1000" rx="150" ry="150" style="fill: #f8cc18;"/>
  <path d="M720,370h-10v-50c0-16.5-12.07-36.04-26.83-43.41,0,0-53.17-26.59-183.17-26.59s-183.16,26.59-183.16,26.59c-14.76,7.38-26.83,26.91-26.83,43.41v50h-10c-16.5,0-30,13.5-30,30v30c0,16.5,13.5,30,30,30h10v205c0,12.99,8.38,24.09,20,28.23v16.77c0,22,18,40,40,40s40-18,40-40v-15h220v15c0,22,18,40,40,40s40-18,40-40v-16.77c11.61-4.15,20-15.25,20-28.23v-205h10c16.5,0,30-13.5,30-30v-30c0-16.5-13.5-30-30-30h0ZM400,300c0-5.5,4.5-10,10-10h180c5.5,0,10,4.5,10,10v20c0,5.5-4.5,10-10,10h-180c-5.5,0-10-4.5-10-10,0,0,0-20,0-20ZM355,655c-13.81,0-25-11.2-25-25s11.19-25,25-25,25,11.2,25,25-11.19,25-25,25ZM645,655c-13.81,0-25-11.2-25-25s11.19-25,25-25,25,11.2,25,25-11.19,25-25,25ZM670,540c0,5.5-4.5,10-10,10h-320c-5.5,0-10-4.5-10-10v-160c0-5.5,4.5-10,10-10h320c5.5,0,10,4.5,10,10v160Z" style="fill: #fff;"/>
</svg>