<?xml version="1.0" encoding="UTF-8"?>
<svg id="uuid-e2cc2bc1-521c-4ef7-b44f-87c0be8669ef" data-name="图层 1" xmlns="http://www.w3.org/2000/svg" viewBox="0 0 1000 1000">
  <rect width="1000" height="1000" rx="150" ry="150" style="fill: #59adf8;"/>
  <path d="M724.14,766.67h-448.28c-14.29,0-25.86-11.19-25.86-25v-433.33c0-13.81,11.57-25,25.86-25h43.1v25c0,27.61,23.16,50,51.72,50s51.73-22.38,51.73-50v-25h25.86v25c0,27.61,23.16,50,51.73,50s51.73-22.38,51.73-50v-25h25.86v25c0,27.61,23.16,50,51.73,50s51.72-22.38,51.72-50v-25h43.11c14.28,0,25.86,11.19,25.86,25v433.33c0,13.81-11.57,25-25.86,25h0ZM655.17,425h-310.34c-14.29,0-25.87,11.2-25.87,25s11.58,25,25.87,25h310.34c14.28,0,25.86-11.19,25.86-25s-11.58-25-25.86-25ZM655.17,533.34h-310.34c-14.29,0-25.87,11.19-25.87,25s11.58,25,25.87,25h310.34c14.28,0,25.86-11.19,25.86-25s-11.58-25-25.86-25ZM659.49,641.67h-318.97c-11.91,0-21.55,9.32-21.55,20.83s9.65,20.84,21.55,20.84h318.97c11.9,0,21.55-9.33,21.55-20.84s-9.65-20.83-21.55-20.83ZM629.31,333.34c-14.28,0-25.87-11.19-25.87-25v-50c0-13.81,11.58-25,25.87-25s25.86,11.19,25.86,25v50c0,13.8-11.58,25-25.86,25ZM500,333.34c-14.28,0-25.86-11.19-25.86-25v-50c0-13.81,11.58-25,25.86-25s25.86,11.19,25.86,25v50c0,13.8-11.58,25-25.86,25ZM370.69,333.34c-14.28,0-25.86-11.19-25.86-25v-50c0-13.81,11.57-25,25.86-25s25.87,11.19,25.87,25v50c0,13.8-11.58,25-25.87,25Z" style="fill: #fff;"/>
</svg>