<?xml version="1.0" encoding="UTF-8"?>
<svg id="uuid-d02cffdb-f52c-4cbd-8fa4-1e068dc08dd6" data-name="图层 1" xmlns="http://www.w3.org/2000/svg" viewBox="0 0 1000 1000">
  <rect width="1000" height="1000" rx="150" ry="150" style="fill: #fe6c6a;"/>
  <path d="M362.51,387.52v-25.01h149.97v25.01h-149.97ZM362.51,462.51v-25.01h149.97v25.01h-149.97ZM362.51,537.49v-25.01h149.97v25.01h-149.97ZM362.51,612.48v-25.01h149.97v25.01h-149.97ZM724.99,712.48v-287.49c0-3.29-1.34-6.48-3.69-8.82-2.35-2.35-5.53-3.69-8.82-3.69h-74.99c-3.29,0-6.48,1.34-8.82,3.69s-3.69,5.53-3.69,8.82v287.49h-25.01v-424.96c0-13.79-11.17-25.01-24.96-25.01h-275.04c-6.64,0-13.01,2.62-17.64,7.37-4.69,4.69-7.31,11.06-7.31,17.7v424.9h-25.01v25.01h500v-25.01h-25.01Z" style="fill: #fff;"/>
</svg>