<?xml version="1.0" encoding="UTF-8"?>
<svg id="uuid-fbd8bee4-1995-4c10-94ef-39618c9437ab" data-name="图层 1" xmlns="http://www.w3.org/2000/svg" viewBox="0 0 1000 1000">
  <rect width="1000" height="1000" rx="150" ry="150" style="fill: #59adf8;"/>
  <path d="M750,450v-87.5c0-27.5-22.5-50-50-50h-68.75c0,10-8.75,18.75-18.75,18.75s-18.75-8.75-18.75-18.75h-293.75c-27.5,0-50,22.5-50,50v87.5c27.5,0,50,22.5,50,50s-22.5,50-50,50v87.5c0,27.5,22.5,50,50,50h293.75c0-10,8.75-18.75,18.75-18.75s18.75,8.75,18.75,18.75h68.75c27.5,0,50-22.5,50-50v-87.5c-27.5,0-50-22.5-50-50s22.5-50,50-50ZM612.5,643.75c-10,0-18.75-8.75-18.75-18.75s8.75-18.75,18.75-18.75,18.75,8.75,18.75,18.75-8.75,18.75-18.75,18.75ZM612.5,581.25c-10,0-18.75-8.75-18.75-18.75s8.75-18.75,18.75-18.75,18.75,8.75,18.75,18.75-8.75,18.75-18.75,18.75ZM612.5,518.75c-10,0-18.75-8.75-18.75-18.75s8.75-18.75,18.75-18.75,18.75,8.75,18.75,18.75-8.75,18.75-18.75,18.75ZM612.5,456.25c-10,0-18.75-8.75-18.75-18.75s8.75-18.75,18.75-18.75,18.75,8.75,18.75,18.75-8.75,18.75-18.75,18.75ZM612.5,393.75c-10,0-18.75-8.75-18.75-18.75s8.75-18.75,18.75-18.75,18.75,8.75,18.75,18.75-8.75,18.75-18.75,18.75Z" style="fill: #fff;"/>
</svg>