<svg t="1751535301568" class="icon" viewBox="0 0 1152 1024" version="1.1" xmlns="http://www.w3.org/2000/svg" p-id="51317" width="256" height="256"><path d="M1062.528 518.72l-53.824-82.176-103.872-158.848c-15.104-31.168-52.672-31.168-67.712 0l-96 146.56-171.392-261.888-55.488-84.8-26.88-41.152C464-12.16 405.76-12.16 382.656 36.48L8.32 608.64c-23.36 48.64 5.76 109.312 52.352 109.312h1052.16c30.08 0 49.024-39.168 33.92-70.592l-84.16-128.64z m-178.816 315.008c0-22.976-15.424-41.344-34.368-41.344H99.584c-18.944 0-34.304 18.56-34.304 41.344 0 22.848 15.36 41.344 34.304 41.344h749.568c19.136 0 34.56-18.368 34.56-41.344z m103.04 107.584H189.056c-18.944 0-34.304 18.56-34.304 41.344 0 22.848 15.36 41.344 34.304 41.344H986.88c18.944 0 34.304-18.56 34.304-41.344 0-22.848-15.36-41.344-34.304-41.344z m68.736-148.928H959.36c-19.008 0-34.368 18.56-34.368 41.344 0 22.848 15.36 41.344 34.368 41.344h96.192c19.008 0 34.368-18.56 34.368-41.344 0-22.848-15.36-41.344-34.368-41.344z" fill="#6FE295" p-id="51318"></path></svg>